# xmcd
#
# Track frame offsets:
#	150
#	19722
#	43643
#	61698
#	82299
#	97844
#	115586
#	136519
#	158615
#	177603
#
# Disc length: 2609 seconds
#
# Revision: 1
# Processed by: cddbd v1.5.2PL0 Copyright (c) Steve Scherf et al.
# Submitted via: EasyCDDAExtractor 15.3.0.1
#
DISCID=700a2f0a
DTITLE=Marc Anthony - Iconos
DYEAR=2010
DGENRE=Latin
TTITLE0=Almohada
TTITLE1=El Triste
TTITLE2=Y Como Es El
TTITLE3=Abrazame Muy Fuerte
TTITLE4=Te Lo Pido Por Favor
TTITLE5=Amada Amante
TTITLE6=Vida
TTITLE7=Ya Lo Se Que Tu Te Vas
TTITLE8=A Quien Quiero Mentirle
TTITLE9=Maldita Sea Mi Suerte
EXTD=DISCID 700A2F0A\nLENGTH 43:24
EXTT0=
EXTT1=
EXTT2=
EXTT3=
EXTT4=
EXTT5=
EXTT6=
EXTT7=
EXTT8=
EXTT9=
PLAYORDER=
